# xmcd CD database file
#
# Track frame offsets:
#	150
#	14107
#	32691
#	47414
#	62699
#	78057
#	100977
#	117204
#	142015
#	162596
#	177139
#	194634
#	211624
#	227944
#	242568
#	260416
#	271393
#	290739
#	309310
#	323241
#	337251
#
# Disc length: 4782 seconds
#
# Revision: 0
# Processed by: cddbd v1.5.2PL0 Copyright (c) Steve Scherf et al.
# Submitted via: CDex 1.51
#
DISCID=3612ac15
DTITLE=Diversos - Paginas da Vida-Nacionais
DYEAR=2006
DGENRE=MPB
TTITLE0=01-Seu nome-Luiza Possi
TTITLE1=02-Se quiser-Tania Mara
TTITLE2=03-Para mais ninguem-Marisa Monte
TTITLE3=04-So em teus bracos-Nana Caymmi
TTITLE4=05-Amplidao-Elba Ramalho
TTITLE5=06-Quem de nos dois-Ana Carolina
TTITLE6=07-Outra vez-Adriana Calcanhoto
TTITLE7=08-So in love-Caetano Veloso
TTITLE8=09-Passarela no ar-Ivan Lins
TTITLE9=10-Ventos de paz-Leila Pinheiro
TTITLE10=11-Onde esta o seu amor-Life
TTITLE11=12-Eu sei-Papas da Lingua
TTITLE12=13-O que resta de nos-Zeca Pagodinho
TTITLE13=14-Alguem me disse-Maysa
TTITLE14=15-Casinha-Armandinho
TTITLE15=16-A dor a mais-Francis Hime
TTITLE16=17-Tempo atras-Life
TTITLE17=18-Este seu olhar e So em teus bracos-Erasmo Carlos e Nana Caymmi
TTITLE18=19-Wave-Daniel Jobim
TTITLE19=20-Melodia-Nelson Freire
TTITLE20=21-Se acontecer-Djavan
EXTD=YEAR: 2006
EXTT0=
EXTT1=
EXTT2=
EXTT3=
EXTT4=
EXTT5=
EXTT6=
EXTT7=
EXTT8=
EXTT9=
EXTT10=
EXTT11=
EXTT12=
EXTT13=
EXTT14=
EXTT15=
EXTT16=
EXTT17=
EXTT18=
EXTT19=
EXTT20=
PLAYORDER=
